<svg width="800" height="800" viewBox="0 0 800 800" fill="none" xmlns="http://www.w3.org/2000/svg">
<g clip-path="url(#clip0_1596_45)">
<path d="M715.512 685.625C683.8 693.908 651.039 698.124 618.235 698.124C474.782 698.124 343.812 619.542 276.399 493.135C191.769 334.31 226.697 140.277 361.403 21.2353L385.445 0L354.399 8.11005C323.764 16.0876 294.18 27.6164 266.497 42.3741C70.707 146.764 -3.69844 390.966 100.69 586.793C170.776 718.294 306.983 800 456.088 800C521.572 800 586.911 783.605 645.055 752.612C672.739 737.853 698.772 719.77 722.519 698.79L746.558 677.515L715.512 685.625Z" fill="white" fill-opacity="0.5"/>
<path d="M469.676 458.125L542.274 419.951L614.833 458.125L600.978 377.311L659.695 320.069L578.547 308.262L542.274 234.773L505.988 308.275L424.827 320.082L483.544 377.324L469.676 458.125Z" fill="white" fill-opacity="0.5"/>
</g>
<defs>
<clipPath id="clip0_1596_45">
<rect width="800" height="800" fill="white"/>
</clipPath>
</defs>
</svg>
