<svg width="48" height="48" viewBox="0 0 48 48" fill="none" xmlns="http://www.w3.org/2000/svg">
<g clip-path="url(#clip0_1604_63)">
<mask id="mask0_1604_63" style="mask-type:luminance" maskUnits="userSpaceOnUse" x="0" y="0" width="48" height="48">
<path d="M48 0H0V48H48V0Z" fill="white"/>
</mask>
<g mask="url(#mask0_1604_63)">
<path d="M42.9307 41.1375C41.028 41.6345 39.0623 41.8874 37.0941 41.8874C28.4869 41.8874 20.6287 37.1725 16.5839 29.5881C11.5061 20.0586 13.6018 8.41662 21.6842 1.27412L23.1267 0L21.2639 0.486603C19.4258 0.965256 17.6508 1.65698 15.9898 2.54245C4.24241 8.80584 -0.22192 23.458 6.04139 35.2076C10.2465 43.0976 18.419 48 27.3653 48C31.2943 48 35.2146 47.0163 38.7033 45.1567C40.3643 44.2712 41.9263 43.1862 43.3511 41.9274L44.7935 40.6509L42.9307 41.1375Z" fill="#FECA01"/>
<path d="M30.01 29L36.5012 25.5817L42.9888 29L41.75 21.7635L47 16.6378L39.7444 15.5806L36.5012 9L33.2568 15.5817L26 16.639L31.25 21.7647L30.01 29Z" fill="#FECA01"/>
</g>
</g>
<defs>
<clipPath id="clip0_1604_63">
<rect width="48" height="48" fill="white"/>
</clipPath>
</defs>
</svg>
